<svg version="1.2" xmlns="http://www.w3.org/2000/svg" viewBox="0 0 227 172" width="227" height="172">
	<title>-e-logo</title>
	<style>
		.s0 { fill: #5b7042 } 
	</style>
	<g id="-e-logo">
		<path id="&lt;Compound Path&gt;" fill-rule="evenodd" class="s0" d="m8.6 168.7c0 2.1-1.3 3.1-3.8 3.1h-4.8v-11.6h4.6c2.2 0 3.4 1 3.4 2.9 0 1.4-0.7 2.3-2.2 2.7 1.9 0.3 2.8 1.3 2.8 2.9zm-7.6-7.7v4.5h3.3c1.7 0 2.7-0.8 2.7-2.3 0-1.4-0.9-2.2-2.6-2.2zm6.6 7.7q0-2.4-3.2-2.4h-3.4v4.8h3.7q2.9 0 2.9-2.4zm15.5 2.4v0.7h-7.3v-11.6h7.1v0.8h-6.1v4.6h5.8v0.8h-5.8v4.7zm13.7-2.1h-6l-1.1 2.8h-1l4.7-11.6h0.9l4.7 11.6h-1zm-0.3-0.7l-2.8-6.9-2.7 6.9zm8.7-0.9v-7.2h1v7.3c0 2.3 1.3 3.7 3.6 3.7 2.2 0 3.6-1.4 3.6-3.7v-7.3h1v7.2c0 2.9-1.8 4.6-4.6 4.6-2.9 0-4.6-1.7-4.6-4.6zm19.5-6.4h-4.1v-0.8h9.2v0.8h-4.1v10.9h-1zm15.5 6.1v4.8h-0.9v-4.8l-4.4-6.9h1.1l3.7 6 3.7-6h1.1zm29.2 4.8h-1.1l-1.4-1.5c-1 1.1-2.3 1.7-3.9 1.7-2.2 0-3.7-1.2-3.7-3.1 0-1.3 0.6-2 3.1-3.6-1-1.3-1.4-2.2-1.4-3.1 0-1.3 1.1-2.2 2.8-2.2 1.6 0 2.7 0.9 2.7 2.3 0 1.2-0.7 2-2.8 3.2q0 0 0 0l0.6 0.7 2.6 2.8c0.5-0.8 0.9-1.9 1-3.1h1c-0.2 1.5-0.7 2.8-1.4 3.8zm-3-2.1l-2.9-3.1-0.5-0.6c-2.1 1.2-2.7 1.9-2.7 3 0 1.3 1.2 2.2 2.8 2.2 1.3 0 2.4-0.5 3.3-1.5zm-3.2-4.8l0.1-0.1c1.7-0.9 2.3-1.6 2.3-2.5 0-0.9-0.7-1.5-1.9-1.5-1.1 0-1.8 0.6-1.8 1.5 0 0.7 0.4 1.5 1.3 2.6zm32.3-4.7v11.6h-0.9v-9.8l-4.1 7.6h-0.6l-4.1-7.6v9.8h-0.9v-11.6h0.9l4.4 8.2 4.4-8.2zm14.9 8.8h-6l-1.1 2.8h-1l4.7-11.6h0.9l4.7 11.6h-1zm-0.3-0.7l-2.7-6.9-2.7 6.9zm8.2 2.7l0.3-0.8c1.2 0.7 2.5 1 3.8 1 1.9 0 3-0.8 3-2.4 0-1.6-1.1-1.8-3.3-2.5-2.2-0.7-3.6-1.2-3.6-3.1 0-2 1.4-3.2 4-3.2 1.2 0 2.3 0.2 3.3 0.7l-0.4 0.7q-1.4-0.6-2.9-0.6c-2 0-3 0.8-3 2.3 0 1.5 1.1 1.8 3.2 2.4 2.6 0.8 3.7 1.2 3.7 3.2 0 2.2-1.4 3.3-3.9 3.3-1.5 0-3.1-0.4-4.2-1zm13.9 0l0.3-0.8c1.2 0.7 2.5 1 3.8 1 2 0 3-0.8 3-2.4 0-1.6-1.1-1.8-3.2-2.5-2.3-0.7-3.7-1.2-3.7-3.1 0-2 1.4-3.2 4-3.2 1.2 0 2.3 0.2 3.3 0.7l-0.3 0.7q-1.4-0.6-2.9-0.6c-2.1 0-3.1 0.8-3.1 2.3 0 1.5 1.1 1.8 3.2 2.4 2.6 0.8 3.8 1.2 3.8 3.2 0 2.2-1.5 3.3-4 3.3-1.5 0-3-0.4-4.2-1zm22-2h-6.1l-1.1 2.9h-1l4.7-11.7h0.9l4.7 11.7h-1zm-0.3-0.8l-2.7-6.9-2.7 6.9zm17.8-2.4v6h-0.8v-1.3c-0.9 0.9-2.2 1.5-3.9 1.5-3.4 0-5.6-2.5-5.6-6.1 0-3.6 2.3-6 5.9-6 1.6 0 3 0.5 4.2 1.3l-0.5 0.7q-1.6-1.2-3.7-1.1c-3.1 0-4.9 1.9-4.9 5.1 0 3.2 1.8 5.2 4.8 5.2q2.4 0 3.6-1.6v-2.9h-3.8v-0.8zm14.4 5.2v0.8h-7.2v-11.7h7v0.8h-6v4.7h5.7v0.8h-5.7v4.6z"/>
		<path id="&lt;Compound Path&gt;" fill-rule="evenodd" class="s0" d="m39.4 133.2l7.3-7.3q1.1-1.1 1.4-1.4 0.3-0.4 0.3-0.9 0-0.8-0.9-1.3-0.4-0.2-1.4-0.3v-0.4h7.4v0.4q-0.7 0.1-1.2 0.3-0.5 0.1-1.1 0.6-0.7 0.5-2.4 2l-5.6 5.4 8 10.2 1 1.2q1.1 1.4 2.3 2.1 0.7 0.5 1.2 0.7 0.5 0.2 1.3 0.3v0.4h-11.4v-0.4q1.3-0.1 1.9-0.4 0.6-0.4 0.6-1 0-0.7-0.7-1.8-0.4-0.5-1.3-1.8-1-1.2-1.7-2l-3.8-4.9-1.2 1.2v5.7q0 1.7 0.2 2.6 0.2 0.9 0.8 1.4 0.4 0.5 1 0.7 0.7 0.3 1.7 0.3v0.4h-11.1v-0.4q1 0 1.6-0.3 0.6-0.2 1.1-0.7 0.6-0.5 0.8-1.4 0.1-0.8 0.1-2.6v-12.8q0-1.7-0.1-2.6-0.2-0.8-0.8-1.4-0.5-0.5-1.1-0.7-0.6-0.2-1.6-0.3v-0.4h11.1v0.4q-1 0.1-1.6 0.3-0.6 0.2-1.1 0.7-0.6 0.6-0.8 1.4-0.2 0.9-0.2 2.6zm45.5-11.5l0.3 5.7h-0.4q-0.3-1.5-0.8-2.4-0.5-1-1.5-1.7-0.8-0.6-1.9-0.8-1.1-0.3-2.9-0.3h-4v10.4h1q1.6 0 2.4-0.2 0.8-0.2 1.3-0.8 0.5-0.5 0.7-1.2 0.3-0.6 0.4-2l0.4 0.1-0.1 9.2h-0.4q-0.1-1.3-0.4-2.1-0.3-0.8-0.9-1.4-0.5-0.6-1.3-0.8-0.8-0.3-2.1-0.3h-1v4q0 2.3 0.1 3.4 0.1 1.1 0.5 1.8 0.6 1.3 1.8 1.9 1.2 0.5 3.2 0.5 2 0 3.4-0.5 1.4-0.5 2.3-1.6 0.6-0.8 1-1.7 0.4-1 0.7-2.5h0.4l-0.2 6.9h-20.6v-0.4q1-0.1 1.6-0.3 0.6-0.2 1.1-0.7 0.5-0.6 0.7-1.4 0.2-0.9 0.2-2.7v-12.7q0-1.8-0.2-2.6-0.2-0.9-0.7-1.4-0.5-0.5-1.1-0.8-0.6-0.2-1.6-0.2v-0.4zm17 3.1v15q0 1.8 0.2 2.7 0.2 0.8 0.7 1.4 0.5 0.5 1.1 0.7 0.6 0.2 1.6 0.3v0.4h-7.9v-0.4q1-0.1 1.6-0.3 0.6-0.2 1.1-0.7 0.5-0.6 0.7-1.4 0.2-0.9 0.2-2.7v-12.7q0-1.8-0.2-2.6-0.2-0.9-0.7-1.4-0.5-0.5-1.1-0.8-0.6-0.2-1.6-0.2v-0.4h6.6l14.1 17.9v-12.5q0-1.8-0.2-2.6-0.2-0.9-0.8-1.4-0.5-0.5-1.1-0.8-0.6-0.2-1.6-0.2v-0.4h8v0.4q-1.7 0-2.7 1-0.5 0.5-0.7 1.4-0.2 0.8-0.2 2.6v18.2h-0.8zm39 8.4l7.3-7.3q1.1-1 1.4-1.4 0.2-0.4 0.2-0.9 0-0.8-0.8-1.3-0.4-0.2-1.4-0.3v-0.4h7.4v0.4q-0.7 0.1-1.3 0.3-0.5 0.2-1.1 0.6-0.6 0.5-2.3 2.1l-5.6 5.3 8 10.2 1 1.3q1.1 1.3 2.2 2.1 0.7 0.4 1.3 0.6 0.5 0.2 1.3 0.3v0.4h-11.4v-0.4q1.3-0.1 1.9-0.4 0.5-0.3 0.5-1 0-0.7-0.7-1.7-0.3-0.5-1.3-1.8-0.9-1.3-1.6-2.1l-3.9-4.8-1.1 1.1v5.7q0 1.8 0.2 2.6 0.2 0.9 0.7 1.4 0.5 0.5 1.1 0.8 0.6 0.2 1.6 0.2v0.4h-11v-0.4q1 0 1.6-0.2 0.6-0.3 1.1-0.8 0.5-0.5 0.7-1.4 0.2-0.8 0.2-2.6v-12.7q0-1.8-0.2-2.7-0.2-0.8-0.7-1.4-0.5-0.5-1.1-0.7-0.6-0.2-1.6-0.3v-0.4h11v0.4q-0.9 0.1-1.6 0.3-0.6 0.2-1.1 0.7-0.5 0.6-0.7 1.4-0.2 0.9-0.2 2.7zm27.7 0.4q0-2.9 1.2-5.4 1.3-2.5 3.6-4.4 1.8-1.3 3.9-2.1 2-0.7 4.1-0.7 2.7 0 5.2 1.2 2.5 1.1 4.3 3.3 3.1 3.4 3.1 7.8 0 2.2-0.8 4.3-0.8 2.1-2.3 3.8-1.9 2.1-4.4 3.2-2.6 1.2-5.4 1.2-2.7 0-5.2-1.1-2.5-1.2-4.4-3.2-1.4-1.6-2.2-3.7-0.7-2-0.7-4.2zm4.2 0.2q0 5 2.7 8.5 1.2 1.5 2.6 2.2 1.4 0.7 3.2 0.7 1.8 0 3.2-0.7 1.3-0.7 2.6-2.2 2.7-3.5 2.7-8.6 0-2.7-0.8-5.2-0.7-2.5-2.1-4.2-1.1-1.5-2.4-2.1-1.4-0.6-3.2-0.6-1.9 0-3.2 0.6-1.4 0.6-2.5 2.1-1.4 1.7-2.1 4.2-0.7 2.5-0.7 5.3z"/>
		<path id="&lt;Path&gt;" class="s0" d="m128.4 98.1c-4.3-3.5-8.4-7.7-10.7-12.1-6.7-13.3-16.8-10.9-25.5-13.8-10.3-3.5-9.2-8.1-7.3-10.3 1.9-2.1 3.6-5.1 2.2-6.2-1.5-1.2-1.4-2.7 0-3 1.3-0.3 2.2-0.9 2.2-0.9-1.3 0-2.1-1.6-2.1-2.8 0.1-1.3 3.3-2 4.2-3.4 0.8-1.5-1.2-4.7-2.5-6.5-1.2-1.8-1-3.7 6.1-4.8 7.2-1.1 9-5.6 9-5.6 2.5-11.2 10.8-17.9 15.4-20.9-6.8 11.4-10.7 24.8-10.7 39 0 19.8 7.4 37.7 19.7 51.3zm22.7-45.8c0-0.1-0.7-10-6.3-12.8-4.5-2.1-6.1-3.5-7.6-4.8-0.5-0.4-1-0.8-1.6-1.3-2.3-1.8-6.6-2.2-6.6-2.2-0.3 0-2.6-0.2-2.6-1.7 0-0.3 0.2-0.7 0.9-1.1 1.9-1 6.8-1.4 12.1 1.8l-0.5 0.7c-5-3-9.3-2.6-10.9-1.9-0.6 0.2-0.7 0.5-0.7 0.5-0.1 0.6 1.1 0.9 1.7 0.9 0.2 0 4.6 0.4 7.1 2.4 0.6 0.4 1.1 0.9 1.6 1.3 1.6 1.3 3.1 2.6 7.5 4.7 6 2.9 6.7 13 6.7 13.4zm5.8 20.2l-0.7-0.3c3-6.7 4.5-18.2 0.8-28.7-3.9-11.4-12.6-20.1-14.8-21.8-2.4-2-3.4-2.8-6.9-1.5-2.7 1.1-6.8 1.3-9.2 1.5-0.9 0-1.5 0.1-1.8 0.1q-0.1 0-0.2 0.1c0 0 0.1 0.1 0.1 0.2 0.4 0.5 1.6 1.1 3.9 1.3 2.8 0.3 5.1-0.6 6.8-1.3 0.9-0.3 1.6-0.5 2.1-0.6 1.8-0.2 3.2 3.1 5 8 1.6 4.2 6.6 9.2 6.7 9.2l-0.6 0.6c-0.2-0.2-5.2-5.1-6.9-9.5-1.2-3.2-2.8-7.5-4.1-7.5q0 0 0 0c-0.5 0.1-1.1 0.3-1.9 0.6-1.8 0.7-4.2 1.6-7.2 1.3-3.1-0.2-4.6-1.4-4.7-2.3 0-0.4 0.3-0.8 0.9-0.9 0.3-0.1 0.9-0.1 1.8-0.2 2.4-0.1 6.4-0.3 9-1.3 3.8-1.5 5.1-0.6 7.7 1.5 2.2 1.7 11.2 10.6 15.1 22.2 3.7 10.8 2.2 22.5-0.9 29.3zm-17.7-38.6c-0.1-0.2-0.5-2.8 0-4.8 0.4-1.9 0.1-4.1 0.1-4.1l0.8-0.2c0 0.1 0.4 2.5-0.1 4.5-0.5 1.9 0 4.4 0 4.4zm-7.1-12.8c0 0-0.8-0.3-3.4-0.2-2.1 0.1-6 0-7.3-1.8q-0.6-0.8-0.3-1.3c0.4-0.6 1.5-0.5 1.9-0.4 2.2 0.1 3.2 0 5.6-0.1 1.1 0 2.3-0.1 4.1-0.2 6-0.2 6.8 1.7 6.9 2l-0.8 0.2 0.4-0.1-0.4 0.2c0-0.1-0.7-1.7-6.1-1.5-1.7 0.1-3 0.2-4 0.2-2.5 0.2-3.5 0.2-5.8 0.1-0.5-0.1-1-0.1-1.1 0 0 0 0.1 0.1 0.2 0.4 0.8 1.1 3.3 1.6 6.7 1.5 2.7-0.1 3.6 0.2 3.6 0.2zm6.9 10.5c-0.1-1.1-0.9-2.9-1.5-4.3-0.4-0.9-0.7-1.7-0.9-2.2-0.4-1.3-1.5-2.2-1.5-2.3l0.5-0.6c0 0 1.3 1.1 1.8 2.6 0.1 0.5 0.5 1.3 0.8 2.1 0.7 1.6 1.5 3.4 1.6 4.6zm-12.8-13.3c-0.2-0.1-3.5-0.9-5.5-3.5-0.1-0.1-0.6-0.9-0.4-1.5 0-0.2 0.2-0.5 0.6-0.6 0.5-0.2 1.3 0.2 2.6 0.9 1.5 0.8 3.3 1.8 5.1 1.9 1.3 0.2 2.7 0.2 3.9 0.3 2.4 0.1 3.7 0.1 4.2 0.5 0.9 0.6 1.1 1.6 1.1 1.6l-0.8 0.2c0 0-0.2-0.7-0.8-1.1-0.3-0.3-2.1-0.3-3.7-0.4-1.3 0-2.7-0.1-4-0.2-1.9-0.2-3.9-1.3-5.4-2.1-0.7-0.4-1.7-0.9-1.9-0.9-0.1 0.1-0.1 0.1-0.1 0.1-0.1 0.2 0.1 0.6 0.2 0.8 1.8 2.3 5 3.2 5.1 3.2zm8.8-1.7c0 0-1.6-2-3.6-3.5-2.1-1.7-4.8-4.6-5.5-6.2-0.3-0.5-0.5-0.7-0.6-0.7 0 0-0.2 0.3-0.2 1-0.1 1.4 2.1 5.2 3.1 6 1 0.9 2.5 2.6 2.5 2.6l-0.6 0.6c0-0.1-1.4-1.7-2.5-2.6-1.1-0.9-3.4-4.9-3.4-6.6 0.1-1 0.4-1.7 0.9-1.8 0.4-0.1 0.9 0 1.5 1.1 0.7 1.5 3.3 4.4 5.3 5.9 2 1.6 3.7 3.6 3.8 3.7zm-42.2 70.8c-2.3 0-5.3-0.6-8.4-2.5l0.4-0.7c5 3 9.4 2.6 10.9 1.9 0.6-0.2 0.8-0.5 0.8-0.5 0-0.6-1.2-0.9-1.8-0.9-0.1 0-4.5-0.4-7-2.3-0.7-0.5-1.2-1-1.7-1.4-1.5-1.3-3-2.6-7.4-4.7-6.1-2.9-6.7-13-6.7-13.4h0.8c0 0.1 0.6 10 6.2 12.7 4.5 2.1 6.1 3.5 7.7 4.8 0.5 0.4 1 0.8 1.6 1.3 2.3 1.8 6.6 2.2 6.6 2.2 0.3 0 2.6 0.2 2.5 1.7 0 0.3-0.1 0.7-0.8 1.1-0.8 0.4-2.1 0.7-3.7 0.7zm-7.1 9c-1.7 0-2.9-0.8-4.7-2.2-2.1-1.8-11.1-10.7-15-22.3-3.7-10.7-2.2-22.4 0.9-29.3l0.7 0.4c-3 6.7-4.5 18.1-0.9 28.7 3.9 11.4 12.7 20.1 14.9 21.8 2.4 2 3.4 2.8 6.9 1.4 2.7-1 6.8-1.3 9.2-1.4 0.8-0.1 1.5-0.1 1.8-0.2q0.1 0 0.1 0c0 0 0-0.1 0-0.2-0.4-0.5-1.6-1.2-3.9-1.4-2.8-0.2-5.1 0.7-6.8 1.3-0.9 0.3-1.6 0.6-2.1 0.7-1.8 0.1-3.2-3.1-5-8-1.6-4.3-6.6-9.2-6.7-9.2l0.6-0.6c0.2 0.2 5.2 5.1 6.9 9.5 1.2 3.2 2.8 7.6 4.1 7.4 0.4 0 1.1-0.3 1.9-0.6 1.8-0.6 4.2-1.5 7.2-1.3 3.1 0.3 4.6 1.4 4.7 2.3 0 0.5-0.3 0.9-0.9 1-0.3 0-0.9 0.1-1.8 0.1-2.4 0.2-6.4 0.4-9 1.4-1.3 0.5-2.3 0.7-3.1 0.7zm-2-6.1c0-0.1-0.4-2.4 0.1-4.5 0.5-1.8 0-4.3 0-4.3l0.8-0.2c0 0.1 0.5 2.7 0 4.7-0.4 1.9-0.1 4.2-0.1 4.2zm6.4 7.8c-5.1 0-5.8-1.8-5.9-2l0.8-0.3c0 0 0.8 1.7 6.1 1.4 1.7 0 3-0.1 4.1-0.2 2.4-0.1 3.5-0.1 5.8 0 0.4 0.1 0.9 0.1 1 0 0 0 0-0.2-0.2-0.4-0.8-1.1-3.3-1.7-6.7-1.5-2.7 0.1-3.5-0.2-3.6-0.2l0.2-0.8c0 0 0.8 0.2 3.4 0.1 2.2 0 6 0.1 7.3 1.9q0.6 0.8 0.3 1.3c-0.4 0.6-1.5 0.5-1.8 0.4-2.2-0.1-3.3-0.1-5.7 0.1-1 0-2.3 0.1-4.1 0.2q-0.5 0-1 0zm-1.8-5.1c0 0-1.3-1.1-1.8-2.6-0.2-0.5-0.5-1.3-0.9-2.1-0.7-1.6-1.5-3.4-1.6-4.7h0.9c0.1 1.1 0.9 2.9 1.5 4.3 0.4 0.9 0.7 1.7 0.9 2.2 0.4 1.3 1.5 2.2 1.5 2.3zm14.4 9.6c-0.5 0-1.2-0.4-2.3-1-1.5-0.8-3.3-1.8-5.1-2-1.2-0.1-2.7-0.1-3.9-0.2-2.3-0.1-3.7-0.1-4.2-0.5-0.9-0.6-1.1-1.6-1.1-1.6l0.8-0.2c0 0 0.2 0.7 0.8 1.1 0.3 0.3 2.1 0.3 3.7 0.4 1.3 0 2.7 0.1 4 0.2 1.9 0.2 3.9 1.3 5.4 2.1 0.8 0.4 1.7 0.9 2 0.8 0 0 0 0 0.1-0.1 0-0.1-0.2-0.5-0.3-0.8-1.8-2.3-5-3.1-5.1-3.1l0.2-0.8c0.2 0 3.6 0.9 5.5 3.4 0.1 0.2 0.6 0.9 0.4 1.6 0 0.2-0.2 0.4-0.5 0.6q-0.2 0.1-0.4 0.1zm-4.1 7.2c-0.3 0-0.8-0.2-1.3-1.2-0.7-1.4-3.3-4.3-5.3-5.9-2-1.5-3.7-3.5-3.7-3.6l0.6-0.5c0 0 1.7 2 3.6 3.5 2.1 1.7 4.8 4.6 5.6 6.2 0.2 0.5 0.5 0.7 0.5 0.7 0.1-0.1 0.2-0.3 0.3-1 0-1.4-2.2-5.2-3.1-6-1.1-0.9-2.5-2.6-2.6-2.7l0.6-0.5c0.1 0 1.5 1.7 2.5 2.6 1.1 0.9 3.4 4.9 3.4 6.6 0 1-0.4 1.7-0.9 1.8q-0.1 0-0.2 0zm15.2-97.5c-2.8 0.4-5.6 1.4-7.5 3-1.9 1.6-3 4-2.7 6.1 0.2 2.2 1.5 4.5 3.1 6.6 1.5 2.1 3.4 4.2 5.3 6.1q1.4 1.5 3 3l1.5 1.4q0.8 0.8 1.6 1.7c2 2.3 3.8 5 4.8 7.9 1.1 3 1.4 6.2 0.7 9.3-0.3 1.5-0.9 3-1.8 4.3-0.4 0.6-1 1.2-1.6 1.6-0.6 0.5-1.4 0.8-2.1 0.8 0.7-0.3 1.2-0.8 1.6-1.3q0.6-0.8 0.9-1.8c0.5-1.2 0.7-2.6 0.6-3.9 0-2.6-0.7-5.2-1.9-7.4-1.2-2.3-2.8-4.4-4.6-6.3q-0.7-0.7-1.5-1.3l-1.6-1.4q-1.6-1.5-3.1-3.1c-2.1-2.1-4-4.4-5.7-7-0.8-1.2-1.6-2.6-2.2-4.1-0.6-1.6-1-3.2-0.9-5 0-1.8 0.6-3.6 1.6-4.9 0.9-1.4 2.2-2.6 3.7-3.3 1.4-0.7 2.9-1.2 4.4-1.3 1.5-0.1 3-0.1 4.4 0.3zm-18.7 61.4c-0.2 0.7-0.5 1.2-0.8 1.8q-0.5 0.8-1.1 1.5c-0.7 1-1.6 1.9-2.7 2.4 0.8-0.9 1.3-1.9 1.6-3q0.3-0.8 0.4-1.6c0.1-0.5 0.2-1.1 0.2-1.6zm25-38.3c2.1 1.1 3.9 2.9 5.4 4.8 1.6 1.9 2.8 4.1 3.7 6.5 0.9 2.3 1.5 4.8 1.7 7.3 0 0.6 0.1 1.2 0.1 1.9-0.1 0.6 0 1.2-0.1 1.9l-0.2 1.9c-0.1 0.7-0.3 1.3-0.4 1.9q-0.6 1.9-1.4 3.6-0.8 1.7-1.7 3.3c-1.2 2-2.2 3.9-2.8 6-1.2 4.1-1 8.8-0.6 13.6q-0.8-1.6-1.4-3.3-0.3-0.9-0.5-1.8c-0.2-0.6-0.4-1.2-0.4-1.8-0.6-2.4-0.6-4.9-0.2-7.5 0.4-2.5 1.4-4.9 2.4-7 1.1-2.2 2-4.1 2.6-6.2 0.6-2 0.7-4.1 0.6-6.3 0.1-1.1-0.1-2.2-0.2-3.3-0.2-1.1-0.3-2.2-0.6-3.3-1.1-4.3-3-8.5-6-12.2zm36.9 37.4c0 0 0.5-2.6-3-4.5 0 0 2.8 0.8 3.3 3 0 0 0-3.1-2.1-4-2.1-0.9-2.9-0.1-3.9-1.3 0 0 0.4 3.8 3 5.3 2.7 1.5 2.7 1.5 2.7 1.5zm1.3-9.4c0 0 0.3-1.3-1-2.5 0 0 1.1 0.6 1.4 1.8 0 0 0.4-1.7-0.7-2.3-1-0.6-2-1-2.1-1.5 0 0-0.1 1.7 0.7 3 0.3 0.5 0.8 0.9 1.3 1.2 0.2 0.1 0.4 0.2 0.4 0.3zm2.1-6.8c0 0 0.9-0.2 1.3-1.3 0 0-0.1 0.8-0.7 1.3 0 0 1.1-0.1 1.2-0.9 0.2-0.8 0.1-1.5 0.4-1.7 0 0-1.1 0.3-1.7 1.1-0.2 0.3-0.3 0.7-0.4 1.1 0 0.2 0 0.3-0.1 0.4zm-2.1 11.4c0 0 3-0.1 3.6-2.2 0 0 0 1.8-2.4 2.4 0 0 1.8 0.2 2.9-0.9 1.1-1.1 0.2-2.8 1.3-3.6 0 0-3.3 0-4.6 3.1 0 0-0.3 0.8-0.8 1.2zm-75.5-39.9c0-3.1-2.5-5.7-5.6-5.7 3.1 0 5.6-2.5 5.6-5.6 0 3.1 2.6 5.6 5.7 5.6-3.1 0-5.7 2.6-5.7 5.7zm-5.1-17.1c0-1.1-0.8-1.9-1.8-1.9 1 0 1.8-0.8 1.8-1.8 0 1 0.8 1.8 1.9 1.8-1.1 0-1.9 0.8-1.9 1.9zm8.8-8.9c0-0.5-0.5-0.9-1-0.9 0.5 0 1-0.5 1-1 0 0.5 0.4 1 0.9 1-0.5 0-0.9 0.4-0.9 0.9z"/>
	</g>
</svg>