<svg version="1.2" xmlns="http://www.w3.org/2000/svg" viewBox="0 0 190 214" width="190" height="214">
	<title>-e-logo</title>
	<style>
		.s0 { fill: #5b7042 } 
	</style>
	<g id="-e-logo">
		<g id="&lt;Group&gt;">
			<path id="&lt;Compound Path&gt;" class="s0" d="m38.4 184.4l5.6-5.6q0.9-0.8 1.1-1.1 0.2-0.3 0.2-0.7 0-0.7-0.7-1-0.3-0.1-1.1-0.2v-0.3h5.8v0.3q-0.6 0-1 0.2-0.4 0.1-0.9 0.4-0.5 0.4-1.8 1.6l-4.3 4.2 6.2 7.8 0.7 0.9q0.9 1.1 1.8 1.7 0.5 0.3 0.9 0.5 0.4 0.1 1.1 0.2v0.3h-8.8v-0.3q1-0.1 1.4-0.3 0.4-0.3 0.4-0.8 0-0.5-0.5-1.3-0.3-0.4-1-1.4-0.7-1-1.2-1.6l-3-3.7-0.9 0.8v4.4q0 1.4 0.2 2.1 0.1 0.6 0.5 1 0.4 0.4 0.9 0.6 0.4 0.2 1.2 0.2v0.3h-8.5v-0.3q0.8 0 1.3-0.2 0.4-0.2 0.8-0.6 0.4-0.4 0.6-1 0.1-0.7 0.1-2.1v-9.8q0-1.3-0.1-2-0.2-0.6-0.6-1.1-0.4-0.3-0.9-0.5-0.4-0.2-1.2-0.2v-0.3h8.5v0.3q-0.8 0-1.2 0.2-0.5 0.2-0.9 0.5-0.4 0.5-0.5 1.1-0.2 0.7-0.2 2z"/>
			<path id="&lt;Compound Path&gt;" class="s0" d="m73.4 175.5l0.2 4.4h-0.3q-0.2-1.1-0.6-1.9-0.4-0.7-1.1-1.3-0.7-0.4-1.5-0.6-0.9-0.2-2.3-0.2h-3v8h0.8q1.2 0 1.8-0.2 0.6-0.2 1-0.6 0.4-0.4 0.5-0.9 0.2-0.5 0.3-1.5h0.3v7.1h-0.3q-0.1-1-0.4-1.6-0.2-0.7-0.6-1.1-0.4-0.4-1-0.6-0.7-0.2-1.7-0.2h-0.7v3q0 1.8 0.1 2.7 0.1 0.8 0.3 1.4 0.5 0.9 1.4 1.4 0.9 0.4 2.4 0.4 1.6 0 2.7-0.4 1.1-0.4 1.8-1.3 0.4-0.5 0.7-1.3 0.3-0.7 0.6-1.9h0.3l-0.2 5.3h-15.8v-0.3q0.7 0 1.2-0.2 0.5-0.2 0.8-0.6 0.5-0.4 0.6-1 0.2-0.7 0.2-2.1v-9.8q0-1.3-0.2-2-0.1-0.6-0.6-1.1-0.3-0.3-0.8-0.5-0.5-0.2-1.2-0.2v-0.3z"/>
			<path id="&lt;Compound Path&gt;" class="s0" d="m86.5 177.9v11.5q0 1.4 0.1 2.1 0.2 0.6 0.6 1 0.3 0.4 0.8 0.6 0.5 0.2 1.2 0.2v0.3h-6.1v-0.3q0.8 0 1.2-0.2 0.5-0.2 0.9-0.6 0.4-0.4 0.6-1 0.1-0.7 0.1-2.1v-9.8q0-1.3-0.1-2-0.2-0.6-0.6-1.1-0.4-0.3-0.8-0.5-0.5-0.2-1.3-0.2v-0.3h5.1l10.8 13.7v-9.6q0-1.3-0.1-2-0.2-0.6-0.6-1.1-0.4-0.3-0.8-0.5-0.5-0.2-1.3-0.2v-0.3h6.2v0.3q-1.4 0-2.1 0.7-0.4 0.5-0.6 1.1-0.1 0.7-0.1 2v14h-0.6z"/>
			<path id="&lt;Compound Path&gt;" class="s0" d="m116.5 184.4l5.6-5.6q0.8-0.8 1-1.1 0.2-0.3 0.2-0.7 0-0.7-0.6-1-0.3-0.1-1.1-0.2v-0.3h5.7v0.3q-0.6 0-1 0.2-0.4 0.1-0.8 0.4-0.5 0.4-1.8 1.6l-4.3 4.2 6.1 7.8 0.8 0.9q0.8 1.1 1.7 1.7 0.6 0.3 1 0.5 0.4 0.1 1 0.2v0.3h-8.8v-0.3q1-0.1 1.5-0.3 0.4-0.3 0.4-0.8 0-0.5-0.5-1.3-0.3-0.4-1-1.4-0.8-1-1.3-1.6l-3-3.7-0.8 0.8v4.4q0 1.4 0.1 2.1 0.2 0.6 0.6 1 0.3 0.4 0.8 0.6 0.5 0.2 1.3 0.2v0.3h-8.5v-0.3q0.7 0 1.2-0.2 0.5-0.2 0.8-0.6 0.5-0.4 0.6-1 0.2-0.7 0.2-2.1v-9.8q0-1.3-0.2-2-0.1-0.6-0.6-1.1-0.3-0.3-0.8-0.5-0.5-0.2-1.2-0.2v-0.3h8.5v0.3q-0.8 0-1.3 0.2-0.4 0.2-0.8 0.5-0.4 0.5-0.6 1.1-0.1 0.7-0.1 2z"/>
			<path id="&lt;Compound Path&gt;" fill-rule="evenodd" class="s0" d="m137.7 184.7q0-2.3 1-4.2 1-1.9 2.8-3.3 1.4-1.1 2.9-1.6 1.6-0.6 3.2-0.6 2.1 0 4 0.9 1.9 0.9 3.4 2.5 2.3 2.7 2.3 6.1 0 1.7-0.6 3.3-0.6 1.6-1.8 2.9-1.4 1.6-3.4 2.5-2 0.9-4.1 0.9-2.1 0-4-0.9-2-0.9-3.4-2.4-1.1-1.3-1.7-2.9-0.6-1.5-0.6-3.2zm3.3 0.2q0 3.8 2.1 6.5 0.9 1.2 2 1.7 1 0.5 2.4 0.5 1.4 0 2.5-0.5 1-0.5 2-1.7 2.1-2.7 2.1-6.6 0-2.1-0.6-4-0.6-2-1.6-3.3-0.9-1.1-1.9-1.6-1.1-0.5-2.5-0.5-1.4 0-2.4 0.5-1.1 0.5-1.9 1.6-1.1 1.3-1.7 3.3-0.5 1.9-0.5 4.1z"/>
		</g>
		<g id="&lt;Group&gt;">
			<path id="&lt;Compound Path&gt;" fill-rule="evenodd" class="s0" d="m8 210.6c0 1.7-1.1 2.6-3.3 2.6h-3.9v-9.7h3.8c1.8 0 2.9 0.8 2.9 2.4 0 1.2-0.7 1.9-1.9 2.3q2.3 0.3 2.4 2.4zm-6.4-6.5v3.8h2.8c1.4 0 2.2-0.7 2.2-1.9 0-1.2-0.7-1.9-2.2-1.9zm5.5 6.4q0-2-2.6-2h-2.9v4h3.1q2.4 0 2.4-2z"/>
			<path id="&lt;Compound Path&gt;" class="s0" d="m20 212.5v0.7h-6v-9.7h5.9v0.6h-5.1v3.9h4.8v0.7h-4.8v3.8z"/>
			<path id="&lt;Compound Path&gt;" fill-rule="evenodd" class="s0" d="m31.4 210.8h-5l-0.9 2.4h-0.9l4-9.7h0.8l3.9 9.7h-0.9zm-0.3-0.7l-2.2-5.7-2.3 5.7z"/>
			<path id="&lt;Compound Path&gt;" class="s0" d="m38.4 209.5v-6h0.8v6.1c0 1.9 1.2 3.1 3 3.1 1.9 0 3.1-1.2 3.1-3.1v-6.1h0.8v6c0 2.4-1.5 3.8-3.9 3.8-2.3 0-3.8-1.4-3.8-3.8z"/>
			<path id="&lt;Compound Path&gt;" class="s0" d="m54.6 204.1h-3.4v-0.6h7.7v0.6h-3.4v9.1h-0.9z"/>
			<path id="&lt;Compound Path&gt;" class="s0" d="m67.6 209.2v4h-0.8v-4l-3.6-5.7h0.9l3.1 5 3.1-5h0.9z"/>
			<path id="&lt;Compound Path&gt;" fill-rule="evenodd" class="s0" d="m91.9 213.1v0.1h-0.9l-1.2-1.2c-0.8 0.8-1.9 1.3-3.2 1.3-1.9 0-3.1-1-3.1-2.5 0-1.2 0.5-1.8 2.6-3-0.9-1.1-1.2-1.9-1.2-2.6 0-1.1 0.9-1.9 2.3-1.9 1.4 0 2.2 0.8 2.2 1.9 0 1.1-0.5 1.7-2.2 2.7q0 0-0.1 0l0.5 0.6 2.2 2.3q0.7-1 0.9-2.6h0.7c-0.1 1.3-0.5 2.4-1.1 3.2zm-2.5-1.7l-2.4-2.6-0.5-0.5c-1.7 1-2.2 1.5-2.2 2.4 0 1.1 1 1.9 2.4 1.9 1 0 2-0.4 2.7-1.2zm-2.7-4l0.2-0.1c1.4-0.8 1.8-1.3 1.8-2.1 0-0.8-0.6-1.3-1.5-1.3-0.9 0-1.5 0.5-1.5 1.3 0 0.6 0.3 1.2 1 2.2z"/>
			<path id="&lt;Compound Path&gt;" class="s0" d="m113.7 203.5v9.7h-0.8v-8.2l-3.4 6.3h-0.6l-3.3-6.3v8.2h-0.8v-9.7h0.7l3.7 6.9 3.7-6.9z"/>
			<path id="&lt;Compound Path&gt;" fill-rule="evenodd" class="s0" d="m126.1 210.8h-5l-0.9 2.4h-0.9l3.9-9.7h0.8l3.9 9.7h-0.9zm-0.2-0.7l-2.3-5.7-2.2 5.7z"/>
			<path id="&lt;Compound Path&gt;" class="s0" d="m132.7 212.5l0.3-0.7c1 0.6 2.1 0.9 3.1 0.9 1.7 0 2.6-0.7 2.6-2.1 0-1.3-0.9-1.5-2.8-2-1.9-0.6-3-1-3-2.7 0-1.6 1.2-2.6 3.3-2.6 1 0 2 0.2 2.8 0.6l-0.3 0.6q-1.2-0.5-2.4-0.5c-1.7 0-2.6 0.6-2.6 1.9 0 1.2 0.9 1.5 2.7 2 2.1 0.6 3.1 1 3.1 2.6 0 1.9-1.2 2.8-3.3 2.8-1.2 0-2.5-0.3-3.5-0.8z"/>
			<path id="&lt;Compound Path&gt;" class="s0" d="m144.3 212.5l0.3-0.7c1 0.6 2.1 0.9 3.1 0.9 1.7 0 2.6-0.7 2.6-2.1 0-1.3-0.9-1.5-2.8-2-1.9-0.6-3-1-3-2.7 0-1.6 1.2-2.6 3.3-2.6 1 0 2 0.2 2.8 0.6l-0.3 0.6q-1.2-0.5-2.4-0.5c-1.7 0-2.6 0.6-2.6 1.9 0 1.2 0.9 1.5 2.7 2 2.1 0.6 3.1 1 3.1 2.6 0 1.9-1.2 2.8-3.3 2.8-1.2 0-2.5-0.3-3.5-0.8z"/>
			<path id="&lt;Compound Path&gt;" fill-rule="evenodd" class="s0" d="m162.6 210.8h-5l-0.9 2.4h-0.9l3.9-9.7h0.8l3.9 9.7h-0.9zm-0.2-0.7l-2.3-5.7-2.2 5.7z"/>
			<path id="&lt;Compound Path&gt;" class="s0" d="m177.2 208.2v5h-0.7v-1.1c-0.7 0.8-1.8 1.2-3.2 1.2-2.8 0-4.7-2-4.7-5 0-3 1.9-5 4.9-5 1.4 0 2.6 0.4 3.5 1l-0.4 0.6q-1.3-0.9-3-0.9c-2.6 0-4.2 1.6-4.2 4.3 0 2.7 1.6 4.4 4 4.4q2.1 0 3.1-1.4v-2.4h-3.2v-0.7z"/>
			<path id="&lt;Compound Path&gt;" class="s0" d="m189.2 212.5v0.7h-6v-9.7h5.9v0.6h-5.1v3.9h4.8v0.7h-4.8v3.8z"/>
		</g>
		<g id="&lt;Group&gt;">
			<path id="&lt;Path&gt;" class="s0" d="m105.6 140.5c-6.2-4.9-12-11-15.3-17.2-9.6-18.9-24-15.6-36.5-19.8-14.7-4.9-13-11.5-10.4-14.6 2.7-3.1 5.2-7.3 3.1-8.9-2-1.7-1.9-3.9 0-4.3 2-0.4 3.2-1.3 3.2-1.3-1.9 0-3-2.2-2.9-4 0.1-1.8 4.7-2.8 5.9-4.9 1.1-2.1-1.7-6.6-3.5-9.2-1.8-2.7-1.5-5.3 8.7-6.9 10.2-1.5 12.7-8 12.7-8 3.6-15.9 15.5-25.5 22.1-29.8-9.8 16.3-15.3 35.4-15.3 55.7 0 28.2 10.6 53.9 28.2 73.2z"/>
			<g id="&lt;Group&gt;">
				<path id="&lt;Path&gt;" class="s0" d="m137.9 75.1c0-0.2-0.9-14.3-8.9-18.2-6.4-3.1-8.7-5-10.9-6.9-0.7-0.6-1.4-1.2-2.2-1.8-3.4-2.6-9.5-3.1-9.5-3.1-0.4-0.1-3.7-0.4-3.6-2.6 0-0.4 0.2-0.9 1.2-1.5 2.6-1.4 9.7-2 17.3 2.6l-0.7 1c-7.1-4.3-13.3-3.7-15.6-2.7-0.8 0.3-1 0.6-1 0.7-0.1 0.8 1.6 1.2 2.5 1.3 0.2 0 6.5 0.6 10.1 3.3 0.9 0.7 1.6 1.3 2.3 1.9 2.2 1.9 4.3 3.7 10.6 6.8 8.7 4.1 9.6 18.5 9.6 19.1z"/>
				<path id="&lt;Path&gt;" class="s0" d="m146.3 104l-1.1-0.5c4.3-9.6 6.4-26 1.3-41-5.6-16.3-18.2-28.8-21.2-31.2-3.5-2.8-4.9-4-9.9-2-3.9 1.5-9.7 1.8-13.2 2-1.2 0.1-2.1 0.1-2.5 0.2-0.2 0-0.2 0.1-0.2 0.1 0 0 0 0.1 0.1 0.3 0.5 0.7 2.2 1.6 5.5 1.9 3.9 0.4 7.3-0.9 9.7-1.8 1.3-0.5 2.2-0.8 3-0.9 2.6-0.3 4.5 4.3 7.2 11.4 2.2 6 9.4 13.1 9.5 13.1l-0.8 0.9c-0.3-0.3-7.5-7.3-9.9-13.6-1.6-4.5-3.9-10.7-5.8-10.7q0 0-0.1 0.1c-0.6 0-1.5 0.4-2.6 0.8-2.6 0.9-6.1 2.3-10.3 1.9-4.5-0.4-6.7-2-6.7-3.3 0-0.7 0.4-1.2 1.2-1.4 0.4 0 1.4-0.1 2.6-0.2 3.4-0.2 9.1-0.5 12.8-1.9 5.4-2.1 7.3-0.9 11.1 2.2 3.1 2.4 15.9 15.1 21.6 31.7 5.2 15.3 3.1 32.1-1.3 41.9z"/>
				<path id="&lt;Path&gt;" class="s0" d="m120.9 48.7c0-0.1-0.7-3.9 0-6.8 0.7-2.6 0.2-5.9 0.2-5.9l1.2-0.2c0 0.2 0.5 3.5-0.2 6.4-0.7 2.7 0 6.3 0 6.3z"/>
				<path id="&lt;Path&gt;" class="s0" d="m110.8 30.4c0 0-1.2-0.3-4.8-0.2-3.1 0.1-8.6-0.1-10.5-2.6q-0.8-1.2-0.4-1.9c0.6-0.9 2.2-0.7 2.6-0.6 3.2 0.2 4.6 0.1 8.1-0.1 1.5-0.1 3.4-0.2 5.8-0.3 8.6-0.3 9.8 2.5 9.9 2.8l-1.1 0.4 0.5-0.2-0.5 0.2c0 0-1.1-2.3-8.7-2-2.5 0.1-4.3 0.2-5.8 0.3-3.5 0.2-5 0.3-8.3 0.1-0.6-0.1-1.3-0.1-1.5 0 0 0 0.1 0.2 0.3 0.6 1.2 1.5 4.6 2.3 9.6 2.1 3.8-0.1 5 0.2 5.2 0.3z"/>
				<path id="&lt;Path&gt;" class="s0" d="m120.6 45.4c-0.1-1.6-1.3-4.1-2.2-6.2-0.5-1.2-1-2.3-1.3-3.1-0.5-1.9-2.1-3.2-2.2-3.2l0.8-0.9c0 0 1.9 1.5 2.6 3.8 0.2 0.7 0.7 1.8 1.2 2.9 1 2.3 2.1 4.8 2.3 6.6z"/>
				<path id="&lt;Path&gt;" class="s0" d="m102.2 26.3c-0.2 0-5-1.3-7.8-4.9-0.2-0.2-0.9-1.3-0.6-2.2 0.1-0.3 0.3-0.7 0.8-0.9 0.8-0.3 1.9 0.3 3.8 1.3 2.1 1.1 4.7 2.5 7.3 2.8 1.8 0.2 3.8 0.3 5.6 0.3 3.3 0.2 5.2 0.3 6 0.8 1.2 0.9 1.5 2.2 1.5 2.3l-1.1 0.3c0 0-0.3-1-1.1-1.6-0.5-0.4-3.1-0.5-5.4-0.6-1.8 0-3.8-0.1-5.7-0.3-2.7-0.3-5.6-1.8-7.6-2.9-1.1-0.6-2.5-1.4-2.9-1.3-0.1 0.1-0.1 0.1-0.1 0.1-0.1 0.3 0.2 0.9 0.4 1.2 2.6 3.3 7.2 4.5 7.2 4.5z"/>
				<path id="&lt;Path&gt;" class="s0" d="m114.9 23.9c-0.1 0-2.4-2.8-5.2-5-3-2.4-6.8-6.6-8-8.8-0.3-0.8-0.7-1-0.7-1-0.1 0-0.4 0.4-0.4 1.4 0 2 3.1 7.4 4.4 8.5 1.6 1.3 3.6 3.7 3.7 3.8l-0.9 0.8c0 0-2-2.4-3.5-3.6-1.7-1.4-4.9-7.1-4.9-9.6 0.1-1.4 0.5-2.3 1.3-2.5 0.5-0.1 1.3 0.1 2.1 1.7 1 2 4.8 6.1 7.6 8.4 2.9 2.2 5.3 5.1 5.4 5.2z"/>
			</g>
			<g id="&lt;Group&gt;">
				<path id="&lt;Path&gt;" class="s0" d="m54.6 125.1c-3.3 0-7.5-0.9-12-3.6l0.6-1c7.2 4.3 13.4 3.7 15.6 2.8 0.9-0.4 1.1-0.7 1.1-0.8 0-0.8-1.7-1.2-2.5-1.3-0.3 0-6.5-0.6-10.1-3.3-0.9-0.7-1.6-1.3-2.3-1.9-2.3-1.9-4.4-3.7-10.7-6.7-8.6-4.2-9.5-18.6-9.6-19.2l1.2-0.1c0 0.2 0.9 14.3 8.9 18.2 6.5 3.1 8.7 5 10.9 6.9 0.7 0.6 1.4 1.2 2.3 1.9 3.3 2.5 9.4 3.1 9.5 3.1 0.4 0 3.7 0.4 3.6 2.5 0 0.4-0.3 0.9-1.3 1.5-1 0.6-2.9 1-5.2 1z"/>
				<path id="&lt;Path&gt;" class="s0" d="m44.4 138c-2.4 0-4.1-1.2-6.6-3.2-3.1-2.5-15.9-15.2-21.5-31.8-5.3-15.3-3.2-32.1 1.3-41.9l1 0.5c-4.3 9.6-6.4 26-1.2 41 5.6 16.3 18.1 28.8 21.2 31.2 3.5 2.8 4.9 4 9.9 2 3.9-1.5 9.7-1.8 13.1-2 1.2-0.1 2.2-0.1 2.6-0.2 0.1 0 0.2-0.1 0.2-0.1 0 0 0-0.1-0.1-0.3-0.5-0.7-2.3-1.6-5.5-1.9-4-0.3-7.3 0.9-9.8 1.8-1.2 0.5-2.2 0.9-3 0.9-2.5 0.3-4.5-4.3-7.1-11.4-2.2-6-9.5-13.1-9.5-13.1l0.8-0.9c0.3 0.3 7.5 7.3 9.8 13.6 1.7 4.6 4.1 10.8 5.9 10.7 0.6-0.1 1.6-0.5 2.7-0.9 2.6-0.9 6.1-2.2 10.3-1.9 4.5 0.4 6.6 2 6.7 3.3 0 0.7-0.5 1.2-1.2 1.4-0.5 0.1-1.4 0.1-2.7 0.2-3.4 0.2-9.1 0.5-12.8 1.9-1.8 0.8-3.2 1.1-4.5 1.1z"/>
				<path id="&lt;Path&gt;" class="s0" d="m41.6 129.3c0-0.2-0.5-3.5 0.2-6.4 0.7-2.6 0-6.2 0-6.3l1.1-0.2c0.1 0.2 0.8 3.9 0 6.8-0.6 2.6-0.1 5.9-0.1 5.9z"/>
				<path id="&lt;Path&gt;" class="s0" d="m50.8 140.4c-7.3 0-8.3-2.5-8.5-2.8l1.2-0.4c0 0 1 2.3 8.7 2 2.4-0.1 4.3-0.2 5.8-0.3 3.5-0.2 5-0.2 8.2 0 0.7 0.1 1.4 0 1.5-0.1 0 0 0-0.2-0.3-0.5-1.1-1.6-4.6-2.4-9.5-2.2-3.9 0.1-5.1-0.2-5.2-0.3l0.4-1.1c0 0 1.1 0.4 4.7 0.2 3.2-0.1 8.7 0.1 10.6 2.7q0.8 1.1 0.3 1.8c-0.5 0.9-2.1 0.7-2.6 0.6-3.1-0.2-4.6-0.1-8.1 0.1-1.5 0.1-3.3 0.2-5.8 0.3q-0.8 0-1.4 0z"/>
				<path id="&lt;Path&gt;" class="s0" d="m48.2 133.1c-0.1 0-1.9-1.5-2.6-3.7-0.2-0.7-0.7-1.8-1.2-3-1-2.3-2.2-4.8-2.3-6.6l1.2-0.1c0.1 1.6 1.2 4.1 2.1 6.2 0.6 1.3 1.1 2.3 1.3 3.1 0.6 1.9 2.2 3.2 2.2 3.2z"/>
				<path id="&lt;Path&gt;" class="s0" d="m68.8 146.9c-0.8 0-1.8-0.6-3.4-1.4-2.1-1.1-4.7-2.5-7.2-2.8-1.8-0.2-3.8-0.3-5.6-0.3-3.4-0.2-5.3-0.2-6-0.8-1.2-0.9-1.6-2.2-1.6-2.3l1.2-0.2c0 0 0.2 0.9 1.1 1.6 0.5 0.3 3 0.4 5.3 0.5 1.8 0.1 3.9 0.1 5.7 0.3 2.8 0.3 5.6 1.8 7.7 3 1.1 0.5 2.5 1.2 2.8 1.2 0.1 0 0.1-0.1 0.1-0.1 0.1-0.3-0.2-0.9-0.4-1.2-2.5-3.3-7.1-4.5-7.1-4.5l0.3-1.1c0.2 0 5 1.3 7.8 4.9 0.1 0.2 0.8 1.3 0.6 2.2-0.1 0.3-0.3 0.7-0.9 0.9q-0.2 0.1-0.4 0.1z"/>
				<path id="&lt;Path&gt;" class="s0" d="m62.9 157.2c-0.5 0-1.2-0.3-1.8-1.6-1.1-2.1-4.8-6.2-7.7-8.5-2.9-2.2-5.2-5.1-5.3-5.2l0.9-0.7c0 0 2.4 2.8 5.2 5 3 2.4 6.8 6.6 7.9 8.8 0.4 0.8 0.7 1 0.8 1 0.1 0 0.3-0.4 0.3-1.3 0.1-2.1-3-7.5-4.4-8.6-1.5-1.3-3.6-3.7-3.6-3.8l0.9-0.8c0 0.1 2 2.5 3.5 3.7 1.6 1.3 4.9 7 4.8 9.5 0 1.4-0.5 2.3-1.3 2.5q-0.1 0-0.2 0z"/>
			</g>
			<path id="&lt;Path&gt;" class="s0" d="m84.6 17.9c-4.1 0.6-8 2-10.8 4.3-2.7 2.4-4.2 5.7-3.8 8.8 0.3 3.1 2.2 6.3 4.4 9.4 2.2 3 4.9 5.9 7.6 8.7q2.1 2.2 4.2 4.2l2.2 2.1q1.2 1.2 2.3 2.4c2.9 3.3 5.4 7.1 6.9 11.3 1.5 4.3 2 8.9 1.1 13.3-0.6 2.1-1.4 4.3-2.7 6.1-0.6 0.9-1.4 1.7-2.3 2.3-0.9 0.6-1.9 1.1-3 1.1 1-0.4 1.7-1.1 2.3-1.9 0.6-0.7 1-1.6 1.3-2.5 0.6-1.8 0.9-3.7 0.9-5.5 0-3.8-1.1-7.4-2.7-10.7-1.7-3.3-4-6.3-6.7-8.9-0.6-0.6-1.3-1.3-2-1.9l-2.4-2.1q-2.3-2.1-4.5-4.3c-2.9-3.1-5.7-6.3-8.1-10-1.1-1.8-2.2-3.8-3.1-5.9-0.8-2.2-1.4-4.6-1.3-7.1 0-2.5 0.9-5.1 2.3-7.1 1.3-2 3.2-3.6 5.2-4.7 2.1-1 4.3-1.6 6.4-1.8 2.1-0.2 4.3-0.1 6.3 0.4z"/>
			<path id="&lt;Path&gt;" class="s0" d="m57.9 105.7c-0.3 0.9-0.8 1.7-1.2 2.5q-0.7 1.1-1.5 2.2c-1.1 1.4-2.4 2.7-3.9 3.4 1.1-1.2 1.9-2.7 2.3-4.2q0.4-1.2 0.6-2.4c0.1-0.7 0.2-1.6 0.3-2.3z"/>
			<path id="&lt;Path&gt;" class="s0" d="m93.6 50.9c3 1.7 5.6 4.2 7.8 6.9 2.2 2.8 3.9 5.9 5.2 9.2 1.3 3.3 2.1 6.9 2.4 10.5 0.1 0.8 0.2 1.7 0.1 2.7 0 0.9 0 1.8 0 2.7l-0.4 2.8c-0.1 0.9-0.4 1.8-0.6 2.7-0.5 1.8-1.2 3.6-1.9 5.2q-1.2 2.4-2.4 4.6c-1.7 2.9-3.1 5.6-4 8.6-1.8 5.9-1.5 12.6-0.9 19.4q-1.1-2.3-2-4.7c-0.3-0.9-0.5-1.7-0.7-2.5-0.2-0.9-0.5-1.7-0.6-2.6-0.8-3.4-0.9-7-0.3-10.7 0.5-3.6 2-7 3.5-10.1 1.5-3.1 2.9-5.9 3.6-8.8 0.9-2.8 1.1-5.8 1-9 0-1.6-0.2-3.1-0.3-4.7-0.3-1.6-0.5-3.2-0.9-4.7-1.5-6.2-4.3-12.2-8.6-17.5z"/>
			<path id="&lt;Path&gt;" class="s0" d="m146.3 104.4c0 0 0.7-3.8-4.3-6.4 0 0 4.1 1.1 4.8 4.3 0 0 0-4.5-3-5.8-3-1.3-4.2-0.1-5.6-1.9 0 0 0.5 5.5 4.3 7.6 3.8 2.2 3.8 2.2 3.8 2.2z"/>
			<path id="&lt;Path&gt;" class="s0" d="m148.2 91c0 0 0.4-1.9-1.4-3.6 0 0 1.5 0.8 2 2.6 0 0 0.5-2.4-1-3.3-1.5-1-2.9-1.4-3-2.1 0 0-0.2 2.3 0.9 4.2 0.4 0.7 1.1 1.3 1.9 1.7 0.3 0.1 0.6 0.3 0.6 0.5z"/>
			<path id="&lt;Path&gt;" class="s0" d="m151.2 81.2c0 0 1.3-0.2 1.9-1.8 0 0-0.1 1.2-1.1 1.9 0 0 1.6-0.3 1.8-1.4 0.2-1.2 0.1-2.2 0.5-2.4 0 0-1.5 0.4-2.4 1.6-0.3 0.5-0.5 1-0.5 1.6-0.1 0.2-0.1 0.5-0.2 0.5z"/>
			<path id="&lt;Path&gt;" class="s0" d="m148.1 97.6c0 0 4.4-0.3 5.2-3.2 0 0 0.1 2.5-3.4 3.5 0 0 2.5 0.2 4.1-1.4 1.6-1.6 0.4-4 1.9-5.1 0 0-4.7 0-6.6 4.4 0 0-0.4 1.2-1.2 1.8z"/>
			<path id="&lt;Path&gt;" class="s0" d="m40.4 40.5c0-4.5-3.6-8.1-8.1-8.1 4.5 0 8.1-3.6 8.1-8 0 4.4 3.6 8 8 8-4.4 0-8 3.6-8 8.1z"/>
			<path id="&lt;Path&gt;" class="s0" d="m33.1 16c0-1.4-1.2-2.6-2.7-2.6 1.5 0 2.7-1.2 2.7-2.7 0 1.5 1.1 2.7 2.6 2.7-1.5 0-2.6 1.2-2.6 2.6z"/>
			<path id="&lt;Path&gt;" class="s0" d="m45.6 3.4c0-0.7-0.7-1.4-1.4-1.4 0.7 0 1.4-0.6 1.4-1.3 0 0.7 0.6 1.3 1.3 1.3-0.7 0-1.3 0.7-1.3 1.4z"/>
		</g>
	</g>
</svg>